<svg xmlns="http://www.w3.org/2000/svg" viewBox="0 0 1035.5 838"><defs><style>.cls-1{stroke:#fff;}.cls-1,.cls-8{stroke-miterlimit:10;}.cls-2{font-size:87px;}.cls-2,.cls-3,.cls-5,.cls-6,.cls-8,.cls-9{fill:#fff;}.cls-2,.cls-3{font-family:GmarketSansMedium-KSCpc-EUC-H, Gmarket Sans;}.cls-3,.cls-5{font-size:34.89px;}.cls-4{letter-spacing:-0.03em;}.cls-5,.cls-6{font-family:GmarketSansLight-KSCpc-EUC-H, Gmarket Sans;}.cls-6{font-size:26px;}.cls-7{letter-spacing:-0.03em;}.cls-8{stroke:#000;}.cls-9{font-size:58.87px;font-family:Hahmlet-Medium, Hahmlet;font-weight:500;}</style></defs><g id="레이어_2" data-name="레이어 2"><g id="레이어_1-2" data-name="레이어 1"><rect class="cls-1" x="26" y="22.5" width="1009" height="815"/><rect class="cls-1" x="21" y="21" width="509" height="815"/><rect class="cls-1" x="14.5" y="11" width="1009" height="815"/><rect class="cls-1" x="9.5" y="9.5" width="509" height="815"/><rect class="cls-1" x="5.5" y="2" width="1009" height="815"/><rect class="cls-1" x="0.5" y="0.5" width="509" height="815"/><text class="cls-2" transform="translate(929.33 97.32) scale(0.99 1)">3</text><text class="cls-3" transform="translate(31.7 60.64) scale(0.99 1)">Ma<tspan class="cls-4" x="59.11" y="0">r</tspan><tspan x="75.12" y="0">ch</tspan></text><text class="cls-5" transform="translate(707.94 781.64) scale(0.99 1)">봄나물 산채비빔밥</text><text class="cls-6" transform="translate(28.7 107.37) scale(0.99 1)">SPRING GREENS<tspan x="0" y="37.73">BIBIM-</tspan><tspan class="cls-7" x="89.07" y="37.73">B</tspan><tspan x="108.5" y="37.73">AB</tspan></text><rect class="cls-8" x="581" y="224" width="361.11" height="470"/><rect class="cls-1" x="186.9" y="339.2" width="142.6" height="185.6"/><text class="cls-9" transform="translate(203.95 417.27) scale(0.99 1)">계절<tspan x="0" y="67.13">특선</tspan></text></g></g></svg>